<svg width="132" height="98" viewBox="0 0 132 98" fill="none" xmlns="http://www.w3.org/2000/svg">
<mask id="mask0_78_3" style="mask-type:luminance" maskUnits="userSpaceOnUse" x="16" y="39" width="100" height="20">
<path d="M115.72 39.0476H16.28V58.9307H115.72V39.0476Z" fill="white"/>
</mask>
<g mask="url(#mask0_78_3)">
<path fill-rule="evenodd" clip-rule="evenodd" d="M78.738 58.2553V39.6353H95.81V41.7913H82.61V47.4317H93.808V49.5877H82.61V56.1211H96.558V58.2771H78.738V58.2553ZM99.682 58.2553V39.6353H103.554V56.0993L115.368 56.0775L114.444 58.2335L99.682 58.2553ZM37.598 56.7091C39.446 57.6455 42.658 58.8215 47.19 58.8215C53.548 58.8215 56.122 55.7291 56.496 53.1157C57.2 48.1286 50.974 47.3446 46.816 46.822C44.704 46.5606 40.612 46.4082 40.59 43.9037C40.568 41.8566 43.362 41.2686 45.98 41.2686C49.258 41.2686 51.7 42.1397 53.042 42.7713L54.472 40.6371C52.668 39.962 49.654 39.0691 46.024 39.0473C43.758 39.0255 42.13 39.3957 41.118 39.8095C36.234 41.7695 36.014 47.214 40.744 49.1086C42.262 49.7184 44.11 50.0015 45.87 50.2411C49.742 50.7637 53.79 51.1122 53.064 54.0086C52.536 56.0993 49.324 56.5349 47.19 56.5349C42.35 56.5349 38.94 54.662 37.598 53.7473V56.7091ZM16.28 58.2553V39.6353H34.584V41.7913H20.152V47.4317H32.582V49.5877H20.152V56.1211H34.584V58.2771H16.28V58.2553ZM64.262 58.2553V41.7913H56.804V39.6353H75.614V41.7913H68.156V58.2553H64.262Z" fill="#BA936B"/>
</g>
</svg>
