<svg width="32" height="32" viewBox="0 0 32 32" fill="none" xmlns="http://www.w3.org/2000/svg">
<g clip-path="url(#clip0_51_3)">
<path d="M24.5022 5.89122C23.431 5.89122 22.6277 6.69456 22.6277 7.76569C22.6277 8.83682 23.431 9.64017 24.5022 9.64017C25.5733 9.64017 26.3766 8.83682 26.3766 7.76569C26.3766 6.69456 25.5733 5.89122 24.5022 5.89122Z" fill="#BA936B"/>
<path d="M16.0669 8.30125C11.6485 8.30125 8.16736 11.9163 8.16736 16.2008C8.16736 20.4854 11.7824 24.1004 16.0669 24.1004C20.3515 24.1004 23.9665 20.4854 23.9665 16.2008C23.9665 11.9163 20.4854 8.30125 16.0669 8.30125ZM16.0669 21.2887C13.2552 21.2887 10.9791 19.0126 10.9791 16.2008C10.9791 13.3891 13.2552 11.113 16.0669 11.113C18.8787 11.113 21.1548 13.3891 21.1548 16.2008C21.1548 19.0126 18.8787 21.2887 16.0669 21.2887Z" fill="#BA936B"/>
<path d="M22.4937 0H9.77406C4.28452 0 0 4.28452 0 9.64017V22.3598C0 27.7155 4.28452 32 9.64017 32H22.3598C27.7155 32 32 27.7155 32 22.3598V9.64017C32.1339 4.28452 27.8494 0 22.4937 0ZM29.0544 22.4937C29.0544 26.1088 26.1088 29.1883 22.3598 29.1883H9.64017C6.0251 29.1883 2.94561 26.2427 2.94561 22.4937V9.77406C2.94561 6.159 5.89121 3.0795 9.64017 3.0795H22.3598C25.9749 3.0795 29.0544 6.0251 29.0544 9.77406V22.4937Z" fill="#BA936B"/>
</g>
<defs>
<clipPath id="clip0_51_3">
<rect width="32" height="32" fill="white"/>
</clipPath>
</defs>
</svg>
