<svg width="118" height="114" viewBox="0 0 118 114" fill="none" xmlns="http://www.w3.org/2000/svg">
<path fill-rule="evenodd" clip-rule="evenodd" d="M34.1163 70.9596C29.9335 70.9596 24.4093 68.5199 24.4093 61.7343C24.4093 55.0248 30.0126 52.585 34.1163 52.585C38.2991 52.585 43.8231 55.0248 43.8231 61.7343C43.8231 68.5199 38.378 70.9596 34.1163 70.9596ZM34.1163 54.0334C29.8549 54.0334 28.4343 57.9984 28.4343 61.7343C28.4343 65.5462 29.8549 69.511 34.1163 69.511C38.2991 69.511 39.7983 65.6227 39.7983 61.7343C39.7983 57.9222 38.22 54.0334 34.1163 54.0334ZM103.801 53.8813C103.801 53.2713 104.116 52.9663 104.826 52.9663H106.563C107.194 52.9663 107.51 53.2713 107.51 53.8813V69.6634C107.51 70.2735 107.194 70.5786 106.563 70.5786H104.826C104.116 70.5786 103.801 70.2735 103.801 69.6634V67.4525C102.933 69.0536 100.96 70.9596 97.1716 70.9596C92.9888 70.9596 88.7276 68.2148 88.7276 61.8867C88.7276 55.6348 93.3836 52.585 97.6449 52.585C100.407 52.585 102.459 53.4235 103.801 55.7113V53.8813ZM98.2768 54.3384C94.4887 54.3384 92.7522 58.0746 92.7522 62.1155C92.7522 67.5287 95.5933 69.2821 98.1187 69.2821C102.222 69.2821 103.88 65.2414 103.88 61.5054C103.88 57.0835 101.907 54.3384 98.2768 54.3384ZM24.5671 69.6634C24.5671 70.2735 24.1727 70.5786 23.5412 70.5786H11.0722C10.4409 70.5786 10.0465 70.2735 10.0465 69.6634V46.1812C10.0465 45.5706 10.4409 45.2657 11.0722 45.2657H13.3609C13.9922 45.2657 14.3079 45.5706 14.3079 46.1812V67.9862C14.3079 68.2912 14.5446 68.5199 14.7814 68.5199H23.5412C24.1727 68.5199 24.5671 68.8249 24.5671 69.4346V69.6634ZM63.5529 69.6634C63.5529 70.2735 63.2366 70.5786 62.6059 70.5786H60.7906C60.1591 70.5786 59.8436 70.2735 59.8436 69.6634V59.9806C59.8436 56.3974 58.2652 54.7962 55.7397 54.7962C52.2673 54.7962 50.6892 57.0835 50.6892 60.2857V69.6634C50.6892 70.2735 50.3734 70.5786 49.7421 70.5786H47.927C47.2955 70.5786 46.9797 70.2735 46.9797 69.6634V53.8813C46.9797 53.2713 47.2955 52.9663 47.927 52.9663H49.5053C50.2155 52.9663 50.5312 53.2713 50.5312 53.8813V55.6348C51.794 53.8813 54.0038 52.585 57.0025 52.585C60.0013 52.585 63.5529 53.9576 63.5529 59.0657V69.6634ZM70.5767 61.8105C70.5767 66.9188 73.1015 69.5874 76.4164 69.5874C80.9939 69.5874 82.3351 64.8601 82.3351 61.4293C82.3351 56.5496 79.8097 50.9079 79.8097 45.2657C79.8097 41.6824 81.0724 38.3277 85.4127 36.1165C85.5709 36.0407 85.7284 36.1929 85.5709 36.3451C84.0716 37.8706 83.2821 40.1575 83.2821 43.1309C83.2821 49.3831 86.1231 55.1775 86.1231 60.8956C86.1231 65.089 83.6768 70.9596 76.3373 70.9596C71.0499 70.9596 66.5515 67.91 66.5515 61.8867C66.5515 56.0923 71.4447 52.585 76.1798 52.585C76.9686 52.585 77.8366 52.7378 78.3104 52.89C78.9417 52.9663 78.7836 53.6527 78.2313 53.6527C73.4178 53.4235 70.5767 57.6935 70.5767 61.8105Z" fill="#BA936B"/>
</svg>
