<svg width="142" height="142" viewBox="0 0 142 142" fill="none" xmlns="http://www.w3.org/2000/svg">
<path fill-rule="evenodd" clip-rule="evenodd" d="M20.3905 78.8369V81.7649H2.08826V61.636H5.3827V78.8369H20.3905ZM17.8281 68.9555L21.4883 62.0021H18.0111L15.2659 68.9555H17.8281ZM47.7519 64.9406C46.5649 63.0732 44.8315 61.5041 42.7902 60.4338C40.7488 59.3634 38.3999 58.794 36.0507 58.794C33.702 58.794 31.3528 59.3634 29.3117 60.4338C27.2704 61.5041 25.5367 63.0732 24.3497 64.9406C23.1628 66.808 22.5219 68.9724 22.5219 71.1372C22.5219 73.302 23.1628 75.4667 24.3497 77.3337C25.5367 79.2009 27.2704 80.7709 29.3117 81.8408C31.3528 82.9109 33.702 83.481 36.0507 83.481C38.3999 83.481 40.7488 82.9109 42.7902 81.8408C44.8315 80.7709 46.5649 79.2009 47.7519 77.3337C48.9392 75.4667 49.5797 73.302 49.5797 71.1372C49.5797 68.9724 48.9392 66.808 47.7519 64.9406ZM44.9037 76.0661C44.018 77.5311 42.7222 78.7659 41.1934 79.6087C39.6645 80.4515 37.9018 80.9016 36.1393 80.9016C34.3768 80.9016 32.6143 80.4515 31.0852 79.6087C29.5561 78.7659 28.2606 77.5311 27.3746 76.0661C26.4889 74.6012 26.0127 72.9069 26.0127 71.2121C26.0127 69.5175 26.4889 67.8231 27.3746 66.3586C28.2606 64.8934 29.5561 63.6588 31.0852 62.8161C32.6143 61.9726 34.3768 61.5225 36.1393 61.5225C37.9018 61.5225 39.6645 61.9726 41.1934 62.8161C42.7222 63.6588 44.018 64.8934 44.9037 66.3586C45.7897 67.8231 46.2663 69.5175 46.2663 71.2121C46.2663 72.9069 45.7897 74.6012 44.9037 76.0661ZM72.5552 70.3165C71.9603 71.6281 70.8324 72.3861 69.9509 72.8445C69.069 73.3028 68.4336 73.4617 67.7931 73.4387L74.1991 81.7649H70.5386L64.3438 73.7135H56.2628V81.7649H52.9683V61.636H66.146C67.4774 61.636 68.8287 61.899 70.0203 62.5693C71.2122 63.2389 72.2438 64.2577 72.728 65.6993C73.2126 67.141 73.1502 69.0053 72.5552 70.3165ZM68.8704 70.1787C69.5645 69.5919 69.9751 68.6274 69.9395 67.6713C69.9037 66.7152 69.4217 65.7671 68.7323 65.1896C68.0432 64.612 67.1618 64.5642 66.329 64.5642H56.2628V70.7856H66.329C67.2184 70.7856 68.1761 70.7657 68.8704 70.1787ZM91.5862 70.2368V72.9814H80.4215V78.8369H95.4293V81.7649H77.1272V61.636H95.4293V64.5642H80.4215V70.2368H91.5862ZM91.7689 58.5258H86.8275L84.8142 61.0872L91.7689 58.5258ZM101.882 76.6411L99.2732 81.7649H95.9789L106.228 61.636H109.522L119.771 81.7649H116.478L113.868 76.6411H101.882ZM107.875 64.8713L103.186 74.0792H112.564L107.875 64.8713ZM139.721 78.8369V81.7649H121.419V61.636H124.713V78.8369H139.721ZM138.294 65.675L138.266 65.1947C138.261 65.1063 138.269 65.0172 138.233 64.9177C138.198 64.8176 138.135 64.7085 138.071 64.6364C138.006 64.5649 137.939 64.531 137.868 64.5229C138.003 64.4758 138.122 64.3829 138.207 64.2452C138.294 64.1082 138.346 63.9255 138.344 63.7303C138.341 63.5343 138.282 63.3259 138.178 63.1712C137.953 62.8419 137.558 62.7852 137.211 62.8021H135.754V66.1649H136.319V64.7837H137.164C137.258 64.7837 137.411 64.7712 137.565 64.8912C137.769 65.1321 137.679 65.4489 137.714 65.7178C137.717 65.8783 137.733 66.0301 137.8 66.1649H138.435V66.061C138.319 66.0139 138.309 65.8459 138.294 65.675ZM137.595 64.1944C137.419 64.3071 137.239 64.3071 137.113 64.3049H136.315V63.2809C136.663 63.2853 137.014 63.2662 137.359 63.2942C137.495 63.3111 137.653 63.3877 137.732 63.5601C137.805 63.7818 137.808 64.0205 137.595 64.1944Z" fill="#BA936B"/>
<path fill-rule="evenodd" clip-rule="evenodd" d="M139.525 63.054C139.275 62.623 138.917 62.265 138.486 62.0153C138.055 61.767 137.566 61.6359 137.068 61.6352C136.572 61.6352 136.078 61.7678 135.649 62.0153C135.218 62.2647 134.859 62.6228 134.609 63.054C134.361 63.4854 134.23 63.9743 134.229 64.472C134.229 64.967 134.362 65.4621 134.609 65.8908C134.859 66.3217 135.218 66.6795 135.649 66.9287C136.081 67.1771 136.57 67.3082 137.068 67.3088C137.563 67.3088 138.058 67.1762 138.486 66.9287C138.917 66.6793 139.275 66.3215 139.525 65.8908C139.773 65.4591 139.904 64.97 139.905 64.472C139.905 63.9777 139.773 63.4827 139.525 63.054ZM139.185 65.7059C138.973 66.0718 138.668 66.3756 138.302 66.5869C137.935 66.7976 137.519 66.9088 137.096 66.9096C136.675 66.9096 136.254 66.7969 135.89 66.5869C135.523 66.3756 135.219 66.0718 135.007 65.7059C134.797 65.342 134.683 64.9221 134.683 64.5022C134.683 64.0823 134.797 63.6624 135.007 63.2985C135.217 62.9353 135.525 62.6274 135.89 62.4182C136.254 62.2075 136.675 62.0956 137.096 62.0956C137.516 62.0956 137.937 62.2075 138.302 62.4182C138.666 62.6274 138.974 62.9353 139.185 63.2985C139.396 63.6646 139.508 64.0796 139.508 64.5022C139.508 64.9221 139.395 65.342 139.185 65.7059Z" fill="#BA936B"/>
</svg>
