<svg width="40" height="32" viewBox="0 0 40 32" fill="none" xmlns="http://www.w3.org/2000/svg">
<path d="M39.7879 28.8995C39.7394 28.7531 39.6943 28.6317 39.6523 28.5345C38.9583 26.7819 37.6321 24.6307 35.6745 22.0803L35.6331 22.0219L35.6124 21.9933L35.5915 21.9639H35.5705C34.682 20.7763 34.1194 19.9778 33.8838 19.569C33.4527 18.7902 33.3561 18.002 33.5917 17.2032C33.7582 16.5998 34.3834 15.3254 35.4661 13.3782C36.0356 12.3463 36.4866 11.5193 36.8197 10.8962C39.2218 6.41831 40.2632 3.55689 39.9437 2.3108L39.8197 2.01961C39.7363 1.8443 39.5211 1.68392 39.1744 1.53766C38.8269 1.3917 38.3827 1.36756 37.8411 1.46483L31.8433 1.52293C31.7461 1.47465 31.6074 1.47915 31.4266 1.53766C31.2461 1.59616 31.1558 1.62552 31.1558 1.62552L31.0514 1.69865L30.9685 1.78651C30.8991 1.8446 30.8227 1.94678 30.7393 2.09284C30.6564 2.23839 30.587 2.40919 30.5316 2.60384C29.8786 4.95947 29.1362 7.14962 28.3029 9.17418C27.7892 10.3814 27.3173 11.4276 26.8865 12.3135C26.4562 13.199 26.0952 13.8515 25.8038 14.2697C25.512 14.6884 25.2487 15.0237 25.0122 15.2771C24.7761 15.5305 24.5958 15.6376 24.471 15.5985C24.3459 15.5593 24.2281 15.5204 24.1166 15.4815C23.9223 15.3062 23.7661 15.0678 23.6483 14.7661C23.53 14.4644 23.4503 14.0846 23.4087 13.6271C23.3672 13.1693 23.3427 12.7755 23.3357 12.4444C23.3292 12.1137 23.3322 11.646 23.3463 11.0425C23.3607 10.4388 23.3672 10.0303 23.3672 9.81609C23.3672 9.07619 23.3775 8.27318 23.3982 7.40686C23.4192 6.54054 23.4362 5.85413 23.4504 5.34845C23.4645 4.84226 23.4711 4.30672 23.4711 3.74212C23.4711 3.17753 23.4466 2.73476 23.3982 2.41339C23.3503 2.09243 23.2769 1.78088 23.1801 1.47885C23.0827 1.17712 22.9401 0.94371 22.7531 0.778015C22.5657 0.612524 22.3327 0.481194 22.0555 0.383618C21.3195 0.15011 20.3824 0.023793 19.2437 0.00415505C16.6613 -0.0347118 15.0021 0.199103 14.2662 0.705292C13.9746 0.919162 13.7108 1.21138 13.4749 1.58102C13.2249 2.00948 13.19 2.2433 13.3705 2.28175C14.2037 2.45676 14.7935 2.87539 15.1407 3.53725L15.2658 3.88798C15.3631 4.14102 15.4602 4.58901 15.5575 5.23134C15.6546 5.87366 15.7172 6.58421 15.7448 7.36257C15.8141 8.78397 15.8141 10.0007 15.7448 11.0129C15.6753 12.0255 15.6096 12.8137 15.547 13.3783C15.4843 13.9429 15.3906 14.4004 15.2658 14.7508C15.1407 15.1012 15.0574 15.3153 15.0157 15.3931C14.9741 15.4708 14.9393 15.5198 14.9118 15.539C14.7313 15.636 14.5436 15.6854 14.3494 15.6854C14.1548 15.6854 13.9189 15.549 13.6413 15.2763C13.3637 15.0036 13.0757 14.629 12.7771 14.152C12.4785 13.6749 12.1418 13.0081 11.7668 12.1516C11.3921 11.2951 11.0033 10.2828 10.6006 9.11475L10.2675 8.26766C10.0592 7.7227 9.77476 6.92921 9.41376 5.88788C9.05253 4.84615 8.73325 3.83847 8.4557 2.86506C8.34475 2.45624 8.17807 2.145 7.95595 1.93083L7.85171 1.84297C7.78242 1.76523 7.67118 1.68269 7.51858 1.59473C7.36576 1.50687 7.2063 1.44386 7.03955 1.4051L1.33314 1.4632C0.750019 1.4632 0.354366 1.64843 0.146036 2.01838L0.0626597 2.19338C0.0210081 2.29086 0 2.44653 0 2.66081C0 2.87498 0.0416515 3.13785 0.125028 3.44909C0.958058 6.19432 1.86396 8.84186 2.84274 11.3921C3.82151 13.9424 4.67205 15.9967 5.39384 17.5533C6.11577 19.1109 6.85164 20.581 7.60144 21.9628C8.35124 23.3451 8.84756 24.231 9.09039 24.6202C9.33352 25.0101 9.52449 25.3016 9.6633 25.4962L10.1841 26.1969C10.5173 26.6643 11.0066 27.2239 11.6522 27.876C12.298 28.5284 13.0129 29.1708 13.7974 29.804C14.582 30.4362 15.4947 30.9521 16.5362 31.3511C17.5775 31.7505 18.591 31.9108 19.5768 31.8334H21.9719C22.4576 31.7746 22.8256 31.5605 23.0758 31.1908L23.1586 31.0445C23.2143 30.9283 23.2665 30.7477 23.3146 30.5048C23.3634 30.2615 23.3876 29.9934 23.3876 29.7018C23.3734 28.8648 23.4188 28.1105 23.5227 27.4389C23.6265 26.7676 23.7448 26.2614 23.8771 25.9205C24.0094 25.5799 24.1586 25.2925 24.3247 25.0595C24.4912 24.826 24.6098 24.6845 24.6794 24.6358C24.7485 24.5868 24.8037 24.5536 24.8454 24.5336C25.1786 24.378 25.5708 24.5287 26.0224 24.9866C26.4737 25.4441 26.897 26.009 27.293 26.6804C27.6887 27.3524 28.1642 28.1063 28.7194 28.9433C29.275 29.7806 29.7609 30.4029 30.1772 30.8124L30.5936 31.1628C30.8717 31.3966 31.2327 31.6108 31.677 31.8054C32.1206 32 32.5093 32.0486 32.843 31.9514L38.1743 31.8348C38.7016 31.8348 39.112 31.7123 39.403 31.4694C39.6946 31.2261 39.8679 30.958 39.9238 30.6664C39.9795 30.3745 39.9825 30.0433 39.9343 29.6731C39.885 29.3037 39.8363 29.0455 39.7879 28.8995Z" fill="white"/>
</svg>
